<mxfile host="app.diagrams.net" modified="2023-07-07T11:00:31.024Z" agent="Mozilla/5.0 (Macintosh; Intel Mac OS X 10_15_7) AppleWebKit/537.36 (KHTML, like Gecko) Chrome/112.0.0.0 Safari/537.36 Edg/112.0.0.0" etag="4mIJRFVYUSZb-DPt5Clr" version="21.6.1" type="github">
  <diagram id="wFE0QG_FPsp0jaGvCLVb" name="Page-1">
    <mxGraphModel dx="1034" dy="544" grid="1" gridSize="10" guides="1" tooltips="1" connect="1" arrows="1" fold="1" page="1" pageScale="1" pageWidth="850" pageHeight="1100" math="0" shadow="0">
      <root>
        <mxCell id="0" />
        <mxCell id="1" parent="0" />
        <mxCell id="R3A_bASbyrTrFZrMnZ4b-7" value="" style="rounded=0;whiteSpace=wrap;html=1;fillColor=#FFFFFF;" vertex="1" parent="1">
          <mxGeometry x="210" y="30" width="590" height="450" as="geometry" />
        </mxCell>
        <mxCell id="R3A_bASbyrTrFZrMnZ4b-46" value="" style="rounded=0;whiteSpace=wrap;html=1;fillColor=#C3ABD0;" vertex="1" parent="1">
          <mxGeometry x="220" y="140" width="570" height="330" as="geometry" />
        </mxCell>
        <mxCell id="R3A_bASbyrTrFZrMnZ4b-47" value="COLUMN" style="rounded=0;whiteSpace=wrap;html=1;fillColor=#FFF2CC;" vertex="1" parent="1">
          <mxGeometry x="550" y="160" width="120" height="150" as="geometry" />
        </mxCell>
        <mxCell id="R3A_bASbyrTrFZrMnZ4b-51" value="COLUMN HEADER" style="rounded=0;whiteSpace=wrap;html=1;fontStyle=1;fillColor=#CDA2BE;" vertex="1" parent="1">
          <mxGeometry x="550" y="160" width="120" height="30" as="geometry" />
        </mxCell>
        <mxCell id="R3A_bASbyrTrFZrMnZ4b-54" value="HEADER" style="rounded=0;whiteSpace=wrap;html=1;fillColor=#67AB9F;" vertex="1" parent="1">
          <mxGeometry x="220" y="40" width="570" height="40" as="geometry" />
        </mxCell>
        <mxCell id="R3A_bASbyrTrFZrMnZ4b-55" value="BOARD_BAR" style="rounded=0;whiteSpace=wrap;html=1;fillColor=#99CCFF;" vertex="1" parent="1">
          <mxGeometry x="220" y="90" width="570" height="40" as="geometry" />
        </mxCell>
        <mxCell id="R3A_bASbyrTrFZrMnZ4b-56" value="item" style="rounded=1;whiteSpace=wrap;html=1;fillColor=#CDA2BE;" vertex="1" parent="1">
          <mxGeometry x="230" y="50" width="60" height="20" as="geometry" />
        </mxCell>
        <mxCell id="R3A_bASbyrTrFZrMnZ4b-57" value="item" style="rounded=1;whiteSpace=wrap;html=1;fillColor=#CDA2BE;" vertex="1" parent="1">
          <mxGeometry x="300" y="50" width="60" height="20" as="geometry" />
        </mxCell>
        <mxCell id="R3A_bASbyrTrFZrMnZ4b-58" value="name" style="rounded=1;whiteSpace=wrap;html=1;fillColor=#FFE599;" vertex="1" parent="1">
          <mxGeometry x="230" y="100" width="60" height="20" as="geometry" />
        </mxCell>
        <mxCell id="R3A_bASbyrTrFZrMnZ4b-59" value="item" style="rounded=1;whiteSpace=wrap;html=1;fillColor=#CDA2BE;" vertex="1" parent="1">
          <mxGeometry x="300" y="100" width="60" height="20" as="geometry" />
        </mxCell>
        <mxCell id="R3A_bASbyrTrFZrMnZ4b-60" value="item" style="rounded=1;whiteSpace=wrap;html=1;fillColor=#CDA2BE;" vertex="1" parent="1">
          <mxGeometry x="370" y="50" width="60" height="20" as="geometry" />
        </mxCell>
        <mxCell id="R3A_bASbyrTrFZrMnZ4b-61" value="search" style="rounded=1;whiteSpace=wrap;html=1;fillColor=#CDA2BE;" vertex="1" parent="1">
          <mxGeometry x="590" y="50" width="80" height="20" as="geometry" />
        </mxCell>
        <mxCell id="R3A_bASbyrTrFZrMnZ4b-62" value="" style="html=1;verticalLabelPosition=bottom;align=center;labelBackgroundColor=#ffffff;verticalAlign=top;strokeWidth=2;strokeColor=#000000;shadow=0;dashed=0;shape=mxgraph.ios7.icons.bell;" vertex="1" parent="1">
          <mxGeometry x="690" y="48.45" width="24" height="23.099999999999998" as="geometry" />
        </mxCell>
        <mxCell id="R3A_bASbyrTrFZrMnZ4b-63" value="" style="html=1;verticalLabelPosition=bottom;align=center;labelBackgroundColor=#ffffff;verticalAlign=top;strokeWidth=2;strokeColor=#000000;shadow=0;dashed=0;shape=mxgraph.ios7.icons.user;" vertex="1" parent="1">
          <mxGeometry x="740" y="45" width="30" height="30" as="geometry" />
        </mxCell>
        <mxCell id="R3A_bASbyrTrFZrMnZ4b-68" value="" style="html=1;verticalLabelPosition=bottom;align=center;labelBackgroundColor=#ffffff;verticalAlign=top;strokeWidth=2;strokeColor=#000000;shadow=0;dashed=0;shape=mxgraph.ios7.icons.looking_glass;" vertex="1" parent="1">
          <mxGeometry x="597" y="55" width="10" height="10" as="geometry" />
        </mxCell>
        <mxCell id="R3A_bASbyrTrFZrMnZ4b-76" value="" style="group" vertex="1" connectable="0" parent="1">
          <mxGeometry x="250" y="160" width="120" height="280" as="geometry" />
        </mxCell>
        <mxCell id="R3A_bASbyrTrFZrMnZ4b-48" value="COLUMN" style="rounded=0;whiteSpace=wrap;html=1;fillColor=#FFF2CC;" vertex="1" parent="R3A_bASbyrTrFZrMnZ4b-76">
          <mxGeometry width="120" height="280" as="geometry" />
        </mxCell>
        <mxCell id="R3A_bASbyrTrFZrMnZ4b-49" value="COLUMN HEADER" style="rounded=0;whiteSpace=wrap;html=1;fontStyle=1;fillColor=#CDA2BE;" vertex="1" parent="R3A_bASbyrTrFZrMnZ4b-76">
          <mxGeometry width="120" height="30" as="geometry" />
        </mxCell>
        <mxCell id="R3A_bASbyrTrFZrMnZ4b-69" value="CARD" style="rounded=1;whiteSpace=wrap;html=1;" vertex="1" parent="R3A_bASbyrTrFZrMnZ4b-76">
          <mxGeometry x="15" y="45" width="90" height="45" as="geometry" />
        </mxCell>
        <mxCell id="R3A_bASbyrTrFZrMnZ4b-73" value="CARD" style="rounded=1;whiteSpace=wrap;html=1;" vertex="1" parent="R3A_bASbyrTrFZrMnZ4b-76">
          <mxGeometry x="15" y="105" width="90" height="45" as="geometry" />
        </mxCell>
        <mxCell id="R3A_bASbyrTrFZrMnZ4b-74" value="CARD" style="rounded=1;whiteSpace=wrap;html=1;" vertex="1" parent="R3A_bASbyrTrFZrMnZ4b-76">
          <mxGeometry x="15" y="170" width="90" height="45" as="geometry" />
        </mxCell>
        <mxCell id="R3A_bASbyrTrFZrMnZ4b-89" value="+ Add Card" style="rounded=1;whiteSpace=wrap;html=1;fillColor=#99FF99;" vertex="1" parent="R3A_bASbyrTrFZrMnZ4b-76">
          <mxGeometry x="10" y="250" width="100" height="25" as="geometry" />
        </mxCell>
        <mxCell id="R3A_bASbyrTrFZrMnZ4b-77" value="" style="group" vertex="1" connectable="0" parent="1">
          <mxGeometry x="400" y="160" width="120" height="280" as="geometry" />
        </mxCell>
        <mxCell id="R3A_bASbyrTrFZrMnZ4b-78" value="COLUMN" style="rounded=0;whiteSpace=wrap;html=1;fillColor=#FFF2CC;" vertex="1" parent="R3A_bASbyrTrFZrMnZ4b-77">
          <mxGeometry width="120" height="280" as="geometry" />
        </mxCell>
        <mxCell id="R3A_bASbyrTrFZrMnZ4b-79" value="COLUMN HEADER" style="rounded=0;whiteSpace=wrap;html=1;fontStyle=1;fillColor=#CDA2BE;" vertex="1" parent="R3A_bASbyrTrFZrMnZ4b-77">
          <mxGeometry width="120" height="30" as="geometry" />
        </mxCell>
        <mxCell id="R3A_bASbyrTrFZrMnZ4b-80" value="CARD" style="rounded=1;whiteSpace=wrap;html=1;" vertex="1" parent="R3A_bASbyrTrFZrMnZ4b-77">
          <mxGeometry x="15" y="45" width="90" height="45" as="geometry" />
        </mxCell>
        <mxCell id="R3A_bASbyrTrFZrMnZ4b-82" value="CARD" style="rounded=1;whiteSpace=wrap;html=1;" vertex="1" parent="R3A_bASbyrTrFZrMnZ4b-77">
          <mxGeometry x="15" y="105" width="90" height="45" as="geometry" />
        </mxCell>
        <mxCell id="R3A_bASbyrTrFZrMnZ4b-83" value="CARD" style="rounded=1;whiteSpace=wrap;html=1;" vertex="1" parent="R3A_bASbyrTrFZrMnZ4b-77">
          <mxGeometry x="15" y="170" width="90" height="45" as="geometry" />
        </mxCell>
        <mxCell id="R3A_bASbyrTrFZrMnZ4b-88" value="+ Add Card" style="rounded=1;whiteSpace=wrap;html=1;fillColor=#99FF99;" vertex="1" parent="R3A_bASbyrTrFZrMnZ4b-77">
          <mxGeometry x="10" y="250" width="100" height="25" as="geometry" />
        </mxCell>
        <mxCell id="R3A_bASbyrTrFZrMnZ4b-84" value="CARD" style="rounded=1;whiteSpace=wrap;html=1;" vertex="1" parent="1">
          <mxGeometry x="565" y="210" width="90" height="45" as="geometry" />
        </mxCell>
        <mxCell id="R3A_bASbyrTrFZrMnZ4b-85" value="+ Add Card" style="rounded=1;whiteSpace=wrap;html=1;fillColor=#99FF99;" vertex="1" parent="1">
          <mxGeometry x="560" y="280" width="100" height="25" as="geometry" />
        </mxCell>
        <mxCell id="R3A_bASbyrTrFZrMnZ4b-90" value="+ Add Column" style="rounded=1;whiteSpace=wrap;html=1;fillColor=#99FF99;" vertex="1" parent="1">
          <mxGeometry x="680" y="162.5" width="100" height="25" as="geometry" />
        </mxCell>
        <mxCell id="R3A_bASbyrTrFZrMnZ4b-91" value="" style="ellipse;whiteSpace=wrap;html=1;aspect=fixed;fillColor=#C3ABD0;" vertex="1" parent="1">
          <mxGeometry x="640" y="95" width="30" height="30" as="geometry" />
        </mxCell>
        <mxCell id="R3A_bASbyrTrFZrMnZ4b-92" value="" style="ellipse;whiteSpace=wrap;html=1;aspect=fixed;fillColor=#C3ABD0;" vertex="1" parent="1">
          <mxGeometry x="687" y="95" width="30" height="30" as="geometry" />
        </mxCell>
        <mxCell id="R3A_bASbyrTrFZrMnZ4b-93" value="" style="ellipse;whiteSpace=wrap;html=1;aspect=fixed;fillColor=#C3ABD0;" vertex="1" parent="1">
          <mxGeometry x="740" y="95" width="30" height="30" as="geometry" />
        </mxCell>
        <mxCell id="R3A_bASbyrTrFZrMnZ4b-95" value="" style="ellipse;whiteSpace=wrap;html=1;aspect=fixed;fillColor=#C3ABD0;" vertex="1" parent="1">
          <mxGeometry x="590" y="95" width="30" height="30" as="geometry" />
        </mxCell>
      </root>
    </mxGraphModel>
  </diagram>
</mxfile>
